<svg width="79" height="68" viewBox="0 0 79 68" fill="none" xmlns="http://www.w3.org/2000/svg">
<path d="M77.2736 1H1.72642C1.32543 1 1 1.32853 1 1.73333V54.5333C1 54.9381 1.32543 55.2667 1.72642 55.2667H38.7736V65.5333H24.9717C24.5707 65.5333 24.2453 65.8619 24.2453 66.2667C24.2453 66.6715 24.5707 67 24.9717 67H54.0283C54.4293 67 54.7547 66.6715 54.7547 66.2667C54.7547 65.8619 54.4293 65.5333 54.0283 65.5333H40.2264V55.2667H77.2736C77.6746 55.2667 78 54.9381 78 54.5333V1.73333C78 1.32853 77.6746 1 77.2736 1ZM76.5472 53.8H2.45283V2.46667H76.5472V53.8Z" fill="white" stroke="white" stroke-width="1.5"/>
<path d="M35.2049 31.8185C35.3497 31.9619 35.5389 32.0343 35.728 32.0343C35.9172 32.0343 36.1063 31.9619 36.2512 31.8185C36.5393 31.5303 36.5393 31.0619 36.2512 30.7737L33.8173 28.3398L36.2497 25.9074C36.5378 25.6192 36.5378 25.1508 36.2497 24.8626C35.9615 24.5744 35.4931 24.5744 35.2049 24.8626L32.2493 27.8182C31.9612 28.1063 31.9612 28.5748 32.2493 28.863L35.2049 31.8185Z" fill="white" stroke="white" stroke-width="1.5"/>
<path d="M38.5044 34.966C38.5635 34.9808 38.6241 34.9882 38.6832 34.9882C39.0142 34.9882 39.3157 34.765 39.3985 34.4281L42.354 22.6059C42.4516 22.2098 42.2122 21.8093 41.8161 21.7103C41.423 21.6128 41.0196 21.8507 40.9206 22.2482L37.965 34.0705C37.8675 34.465 38.1084 34.867 38.5044 34.966Z" fill="white" stroke="white" stroke-width="1.5"/>
<path d="M44.0714 31.8185C44.2162 31.9619 44.4054 32.0343 44.5945 32.0343C44.7837 32.0343 44.9729 31.9619 45.1177 31.8185L48.0732 28.863C48.3614 28.5748 48.3614 28.1063 48.0732 27.8182L45.1177 24.8626C44.8295 24.5744 44.3611 24.5744 44.0729 24.8626C43.7847 25.1508 43.7847 25.6192 44.0729 25.9074L46.5053 28.3398L44.0729 30.7722C43.7832 31.0619 43.7832 31.5289 44.0714 31.8185Z" fill="white" stroke="white" stroke-width="1.5"/>
</svg>
