<svg width="90" height="72" viewBox="0 0 90 72" fill="none" xmlns="http://www.w3.org/2000/svg">
<path d="M7.5 59.0215C8.32812 59.0215 9 58.3496 9 57.5215V9.52148C9 8.69336 9.67578 8.02148 10.5 8.02148H43.5C44.3281 8.02148 45 7.3496 45 6.52148C45 5.69336 44.3281 5.02148 43.5 5.02148H10.5C8.0195 5.02148 6 7.04098 6 9.52148V57.5215C6 58.3496 6.67188 59.0215 7.5 59.0215Z" fill="white"/>
<path d="M67.5 8.02148H79.5C80.3242 8.02148 81 8.69336 81 9.52148V57.5215C81 58.3496 81.6719 59.0215 82.5 59.0215C83.3281 59.0215 84 58.3496 84 57.5215V9.52148C84 7.04098 81.9805 5.02148 79.5 5.02148H67.5C66.6719 5.02148 66 5.69336 66 6.52148C66 7.3496 66.6719 8.02148 67.5 8.02148Z" fill="white"/>
<path d="M88.5004 62.0215H55.5004C54.6723 62.0215 54.0004 62.6934 54.0004 63.5215C54.0004 64.3496 54.6723 65.0215 55.5004 65.0215H86.7424C86.1252 66.7676 84.4572 68.0215 82.5002 68.0215H7.5002C5.5432 68.0215 3.8752 66.7676 3.258 65.0215H34.5C35.3281 65.0215 36 64.3496 36 63.5215C36 62.6934 35.3281 62.0215 34.5 62.0215H1.5C0.67188 62.0215 0 62.6934 0 63.5215C0 67.6582 3.3633 71.0215 7.5 71.0215H82.5C86.6367 71.0215 90 67.6582 90 63.5215C90 62.6934 89.3285 62.0215 88.5004 62.0215Z" fill="white"/>
<path d="M36.3983 16.0334C36.3827 16.0373 36.367 16.0334 36.3475 16.0373L23.0505 18.3811C19.7927 18.9553 17.6091 22.0725 18.1794 25.3264L19.7028 34.0334C20.2028 36.8459 22.8512 39.0451 25.7301 39.0451C26.0543 39.0451 26.3824 39.0177 26.7106 38.9592L28.0739 38.717L32.3122 51.194C32.7809 52.2057 33.7888 52.8112 34.8513 52.8112C35.1872 52.8112 35.5271 52.7526 35.8591 52.6237L39.3552 51.2604C40.031 50.9947 40.5661 50.483 40.8552 49.8151C41.1403 49.1471 41.1521 48.4049 40.9333 47.901L37.9372 36.975L39.988 36.6117C39.9919 36.6117 39.9958 36.6078 39.9958 36.6078C40.031 36.6039 40.0622 36.6078 40.1013 36.6039C51.7063 34.7562 60.4533 39.2523 63.7963 42.1312L63.9799 43.1742C64.1088 43.9007 64.7416 44.4125 65.4526 44.4125C65.5424 44.4125 65.6283 44.4047 65.7182 44.389C66.5307 44.2445 67.0776 43.4672 66.933 42.6507L64.5892 29.3347C66.558 28.9871 68.2767 27.8933 69.429 26.2527C70.5774 24.6121 71.0188 22.6199 70.6712 20.6472C69.9485 16.5808 66.054 13.8425 61.9876 14.5613L59.6399 1.24134C59.4954 0.421025 58.7024 -0.129764 57.9016 0.0265355C57.0891 0.171066 56.5422 0.948416 56.6868 1.76484L59.3274 16.7448C59.3352 16.78 59.3391 16.8112 59.3469 16.8464L61.3274 28.0734C61.3352 28.1437 61.347 28.214 61.3626 28.2843L63.0579 37.9132C58.429 35.0538 50.6789 32.2726 40.9639 33.4796L38.3389 18.6746C44.4991 17.2801 49.9009 14.0848 54.7999 8.88944C55.3663 8.28788 55.3389 7.33474 54.7374 6.76834C54.1319 6.19803 53.1827 6.22537 52.6163 6.83084C47.8272 11.9167 42.5463 14.9246 36.4713 16.0183C36.44 16.0183 36.4205 16.0301 36.3971 16.034L36.3983 16.0334ZM67.7183 21.1662C67.9253 22.3498 67.6597 23.5451 66.9722 24.5295C66.2847 25.5139 65.2534 26.1662 64.0699 26.3772L62.5074 17.5139C64.9293 17.0803 67.2808 18.7248 67.7183 21.1662ZM38.0113 48.5612L34.9879 49.7448L31.066 38.1858L34.9762 37.4944L38.0113 48.5612ZM26.1953 36.0062C26.0429 36.0335 25.8906 36.0453 25.7343 36.0453C24.289 36.0453 22.9062 34.9086 22.6601 33.5101L21.1367 24.807C20.8594 23.2054 21.9766 21.6155 23.5781 21.3342L35.3941 19.2522L37.9918 33.9163L26.1953 36.0062Z" fill="white"/>
</svg>
