<svg width="110" height="135" viewBox="0 0 110 135" fill="none" xmlns="http://www.w3.org/2000/svg">
<path d="M24.5 31.1992C24.5 32.1992 25.3008 33.0976 26.3984 33.0976C27.3984 33.0976 28.2968 32.2968 28.2968 31.1992C28.2968 30.1992 27.496 29.3008 26.3984 29.3008C25.3007 29.3008 24.5 30.1992 24.5 31.1992Z" fill="white"/>
<path d="M31.6992 31.1992C31.6992 32.1992 32.5 33.0976 33.5976 33.0976C34.5976 33.0976 35.496 32.2968 35.496 31.1992C35.496 30.1992 34.6952 29.3008 33.5976 29.3008C32.5 29.3008 31.6992 30.1992 31.6992 31.1992Z" fill="white"/>
<path d="M38.8975 31.1992C38.8975 32.1992 39.6982 33.0976 40.7959 33.0976C41.7959 33.0976 42.6943 32.2968 42.6943 31.1992C42.6943 30.1992 41.8935 29.3008 40.7959 29.3008C39.7998 29.3008 38.8975 30.1992 38.8975 31.1992Z" fill="white"/>
<path d="M93.6992 28.6025C93 28.6025 92.3984 29.2041 92.3984 29.9033V32.5049C92.3984 33.2042 93 33.8057 93.6992 33.8057C94.3985 33.8057 95 33.2042 95 32.5049V29.9033C95 29.2002 94.3985 28.6025 93.6992 28.6025Z" fill="white"/>
<path d="M20.1988 42.3984H89.8978C92.4994 42.3984 94.6986 40.3984 94.9994 37.7968C95.101 37.0976 94.601 36.496 93.8978 36.3984C93.1986 36.2968 92.597 36.7968 92.4994 37.5C92.3979 38.8008 91.3002 39.8008 89.8978 39.8008H20.1988C18.8004 39.8008 17.5972 38.6016 17.5972 37.1992L17.6011 25.1992C17.6011 23.8008 18.8003 22.5976 20.2027 22.5976H89.9017C91.2025 22.5976 92.3001 23.5976 92.5033 24.8984C92.6049 25.5976 93.2025 26.0976 93.9017 26C94.6009 25.8984 95.1009 25.3008 95.0033 24.6016C94.6986 22 92.4994 20 89.8002 20H20.1982C17.3974 20 14.999 22.3008 14.999 25.1992V37.3012C14.999 40.102 17.3004 42.3984 20.1988 42.3984Z" fill="white"/>
<path d="M55 29.8984C54.3008 29.8984 53.6992 30.5 53.6992 31.1992C53.6992 31.8985 54.3008 32.5 55 32.5H85.5C86.1992 32.5 86.8008 31.8985 86.8008 31.1992C86.8008 30.5 86.1993 29.8984 85.5 29.8984H55Z" fill="white"/>
<path d="M28.1991 60C28.1991 59 27.3984 58.1016 26.3007 58.1016C25.3007 58.1016 24.4023 58.9023 24.4023 60C24.4023 61 25.2031 61.8984 26.3007 61.8984C27.3984 61.8984 28.1991 60.9999 28.1991 60Z" fill="white"/>
<path d="M35.3984 60C35.3984 59 34.5976 58.1016 33.5 58.1016C32.5 58.1016 31.6016 58.9023 31.6016 60C31.6016 61 32.4023 61.8984 33.5 61.8984C34.6016 61.8984 35.3984 60.9999 35.3984 60Z" fill="white"/>
<path d="M42.6991 60C42.6991 59 41.8984 58.1016 40.8007 58.1016C39.8007 58.1016 38.9023 58.9023 38.9023 60C38.9023 61 39.7031 61.8984 40.8007 61.8984C41.8007 61.8984 42.6991 60.9999 42.6991 60Z" fill="white"/>
<path d="M16.3008 62.6026C17 62.6026 17.6016 62.0011 17.6016 61.3018V58.7002C17.6016 58.001 17 57.3994 16.3008 57.3994C15.6016 57.3994 15 58.001 15 58.7002V61.3018C15 62.001 15.6016 62.6026 16.3008 62.6026Z" fill="white"/>
<path d="M89.8007 48.8018H20.1987C17.5971 48.8018 15.3979 50.8018 15.0971 53.4034C14.9955 54.1026 15.4955 54.7042 16.1987 54.8018C16.8979 54.9033 17.4995 54.4033 17.5971 53.7002C17.6987 52.3994 18.7963 51.3994 20.1987 51.3994H89.8977C91.2961 51.3994 92.4993 52.5986 92.4993 54.001V66.001C92.4993 67.3994 91.3001 68.6026 89.8977 68.6026H20.1987C18.8979 68.6026 17.8003 67.6026 17.5971 66.3018C17.4955 65.6025 16.8979 65.1026 16.1987 65.2002C15.4995 65.3017 14.9995 65.8994 15.0971 66.5986C15.3979 69.2002 17.5971 71.2002 20.1987 71.2002H89.8977C92.6985 71.2002 95.0969 68.8994 95.0969 66.001L95.1008 54.001C94.9992 51.1026 92.6992 48.8018 89.8007 48.8018Z" fill="white"/>
<path d="M85.5 61.3018C86.1992 61.3018 86.8008 60.7002 86.8008 60.001C86.8008 59.3018 86.1993 58.7002 85.5 58.7002H55C54.3008 58.7002 53.6992 59.3018 53.6992 60.001C53.6992 60.7002 54.3008 61.3018 55 61.3018H85.5Z" fill="white"/>
<path d="M24.5 88.8017C24.5 89.8017 25.3008 90.7001 26.3984 90.7001C27.3984 90.7001 28.2968 89.8994 28.2968 88.8017C28.2968 87.8017 27.496 86.9033 26.3984 86.9033C25.3007 86.8994 24.5 87.8018 24.5 88.8017Z" fill="white"/>
<path d="M31.6992 88.8017C31.6992 89.8017 32.5 90.7001 33.5976 90.7001C34.5976 90.7001 35.496 89.8994 35.496 88.8017C35.496 87.8017 34.6952 86.9033 33.5976 86.9033C32.4999 86.8994 31.6992 87.8018 31.6992 88.8017Z" fill="white"/>
<path d="M38.8984 88.8017C38.8984 89.8017 39.6992 90.7001 40.7968 90.7001C41.7968 90.7001 42.6952 89.8994 42.6952 88.8017C42.6952 87.8017 41.8945 86.9033 40.7968 86.9033C39.8007 86.8994 38.8984 87.8018 38.8984 88.8017Z" fill="white"/>
<path d="M93.6992 86.1992C93 86.1992 92.3984 86.8008 92.3984 87.5V90.1016C92.3984 90.8008 93 91.4024 93.6992 91.4024C94.3985 91.4024 95 90.8009 95 90.1016V87.5C95 86.8008 94.3985 86.1992 93.6992 86.1992Z" fill="white"/>
<path d="M20.1993 100.001H89.8983C92.4999 100.001 94.6991 98.0008 94.9999 95.3992C95.1015 94.7 94.6015 94.0984 93.8983 94.0008C93.1991 93.8993 92.5975 94.3993 92.4999 95.1024C92.3983 96.4032 91.3007 97.4032 89.8983 97.4032L20.1993 97.3993C18.8009 97.3993 17.5977 96.2001 17.5977 94.7977L17.6016 82.8017C17.6016 81.4033 18.8008 80.2001 20.2032 80.2001H89.9022C91.203 80.2001 92.3006 81.2001 92.5038 82.5009C92.6054 83.2002 93.203 83.7001 93.9022 83.6025C94.6014 83.501 95.1014 82.9033 95.0038 82.2041C94.703 79.6025 92.5038 77.6025 89.9022 77.6025H20.1992C17.3984 77.6025 15 79.9033 15 82.8017V94.9037C15 97.7006 17.3009 100.001 20.1993 100.001Z" fill="white"/>
<path d="M55 87.5C54.3008 87.5 53.6992 88.1016 53.6992 88.8008C53.6992 89.5 54.3008 90.1016 55 90.1016H85.5C86.1992 90.1016 86.8008 89.5 86.8008 88.8008C86.8008 88.1016 86.1993 87.5 85.5 87.5H55Z" fill="white"/>
</svg>
